<?xml version="1.0" encoding="utf-8"?>
<!-- Generator: Adobe Illustrator 28.2.0, SVG Export Plug-In . SVG Version: 6.00 Build 0)  -->
<svg version="1.1" id="Calque_1" xmlns="http://www.w3.org/2000/svg" xmlns:xlink="http://www.w3.org/1999/xlink" x="0px" y="0px"
	 viewBox="0 0 329.33 172.33" style="enable-background:new 0 0 329.33 172.33;" xml:space="preserve">
<style type="text/css">
	.st0{fill:#CAFDFF;}
	.st1{fill:#81D4FA;}
</style>
<path class="st0" d="M274.43,61.32c0.03,2.08-4.46,3.96-6.67,4.89c-6.09,2.55-8.34,0.56-12,3.11c-3.27,2.28-2.5,4.57-6.22,7.11
	c-2.85,1.94-5.72,2.25-7.33,2.44c-21.41,2.6-31.49,11.59-51.78,8.67c-4.86-0.7-8.58-2.44-16.22,0.44
	c-1.78,0.67,13.26,3.26,10.67,5.78c-3.39,3.29-24.83,3.98-27.56,6c-3.22,2.39-8.58,2.68-12.67,0.22c-3.49-2.1-7.61-7.15-5.56-12.22
	c1.74-4.28,5.78,1.56,12.44-5.11c8.97,3.87,11.77,3.87,12.44,2.89c1.71-2.5-9.96-12.07-7.78-15.56c1.22-1.94,5.24,0.45,9.78-1.33
	c7.58-2.97,5.9-21.44,11.33-17.33c12.67,9.56,41.04,17.31,44,13.78c2.33-2.79-16.22-18.75-12.22-25.78
	c2.31-4.06,11.01-3.12,13.11-2.89c12.39,1.34,14.17,9.63,29.33,16.44C263.91,58.43,274.38,58.15,274.43,61.32z"/>
<path class="st0" d="M176.43,25.87c0-0.3-4.23-0.38-19.67-1c-10.77-0.44-13.74-0.6-17.67,1c-5.48,2.23-8.97,6.33-11,9.33
	c4.38-1.92,11-4.47,19.33-6.33C163.55,25.27,176.42,26.4,176.43,25.87z"/>
<path class="st0" d="M157.09,35.87c-0.2-1.38-9.54-3.25-16.33,1c-3.18,1.99-3.96,4.16-8,6c-3.29,1.5-6.45,1.72-8.67,1.67
	c5.57,1.42,6.71,2.38,6.67,3c-0.04,0.66-1.48,1.6-9,2.33c1.33,1.11,2.67,2.22,4,3.33c-2.85,1.58-7.17,3.75-12.67,5.67
	c-11.31,3.95-13.95,2.05-24.67,5.33c-10.01,3.06-10.17,5.46-23.33,10c-6.94,2.39-12.76,3.74-15.67,4.33
	c-7.75,1.57-22.69,3.35-43.33-2c9.71,3.08,19.71,6.09,30,9c21.46,6.08,28.24,11.68,42.33,11c5.31-0.26,10.71-0.52,16.67-3.67
	c7.99-4.23,8.27-9.05,20-20.67c8.33-8.25,8.97-6.59,14.33-13c6.81-8.14,6.79-12.01,13-16.67C149.95,36.9,157.28,37.11,157.09,35.87z
	"/>
<path class="st1" d="M55.76,58.87c12.16-3.69,25.44-10.79,52-25c14.85-7.94,19.45-10.83,29.33-14.33c11.24-3.99,21.08-7.48,32-7
	c17.28,0.75,21.8,10.76,49.67,27c7.8,4.55,25.79,14.45,48.67,21.67c29.34,9.25,54.25,10.15,54.33,9.67c0.05-0.31-10.43-1.49-25.67-6
	c-11.96-3.54-21.19-7.47-29.67-11.33c-16.46-7.51-28.12-13.92-60.67-31.67c-22.33-12.18-33.7-18.25-43.33-17
	c-3.92,0.51-11.61,2.67-27,7c-7.72,2.17-14.06,4.05-18.33,5.33c-1,2.56-2,5.11-3,7.67c-14.97,4.75-26.27,10.1-33.67,14
	c-17.79,9.37-25.49,16.91-44,22.33c-10.28,3.01-18.37,3.76-18.33,4C18.15,65.56,35.91,64.89,55.76,58.87z"/>
<path class="st1" d="M198.43,28.87c-3.61-0.1-8.24-0.22-13.67-0.33c16.22,7.75,22.81,16.12,28.67,28.67
	c-32.03-4.18-38.43-5.43-54-19c-0.33,2.38-0.47,5.34,0,8.67c1.34,9.42,6.75,15.7,9.33,18.33c-4.78-1.22-9.56-2.44-14.33-3.67
	c-2.4,2.64-5.04,6.11-4,8c0.85,1.53,3.56,1.01,6,1.67c3.41,0.92,7.57,4.5,10.67,16.33c-1.93-2.64-9.11-16.64-13.33-10.33
	c-12.77,19.08-25.36-1.39-27.33,5.33c-0.25,0.84-1.29,5.14,6,12.33c-1.8-1.87-7.55-7.36-16-7.67c-2.29-0.08-4.32,0.23-6,0.67
	c3.49,1.67,7.95,3.81,13.17,6.25c9.48,4.45,11.83,5.44,15.24,6.23c4.66,1.08,14.02,3.26,16.97-1.04c2.81-4.1-1.88-11.62-2.42-12.47
	c2.05,0.64,4.88,1.43,8.31,2.08c7.14,1.35,10.71,2.02,12.81,0.35c2.62-2.09-3.38-5.62-2.71-14.71c0.66-9.07,5.45-13.92,8.25-16.11
	c5.1-3.97,13.63,3.92,31.86,8.66c14.32,3.72,28.56,3.92,29.43,1.04c1.24-4.13-25.78-11.74-26.32-25.97
	c-0.17-4.54,2.43-7.49,0.35-10.39C213.66,29.43,210.34,29.21,198.43,28.87z"/>
<path class="st1" d="M112.68,29.77c-0.14,1.8,6.75,2.18,9.68,7.2c0.86,1.48,1.14,2.95,1.24,3.97c0.98-2.19,2.54-6.56,1.49-11.67
	c-1.02-4.97-4.24-9.32-5.46-8.94c-0.97,0.31,0.23,3.34-1.74,5.96C115.94,28.89,112.77,28.54,112.68,29.77z"/>
<path class="st1" d="M133.54,53.1c0.15,0.13-3.57,5.03-8,9.78c-4.02,4.3-7.83,7.62-10.95,10.09c-1.47,1.16-2.75,2.11-3.71,2.79
	c-0.7,1.78-1.81,4.31-3.56,7.11c-1.83,2.94-7.57,11.93-18.22,16c-5.92,2.26-13.58,3.09-14.67,0.89c-0.26-0.52-0.02-1.24,0.44-2.67
	c0.91-2.79,2.47-5.13,3.56-6.22c3.85-3.87,10.08-0.35,17.33-2.22c4.27-1.1,6.53-3.46,12.76-9.94
	C130.07,56.3,133.41,52.98,133.54,53.1z"/>
<path class="st0" d="M258.93,79.78c0.61-2.03,4.47-2.55,12.19-3.59c4.48-0.6,9.26-1.2,15.42,0c4.16,0.81,7.45,2.15,9.68,3.23
	c0.29,1.53,0.42,3.64-0.72,5.38c-1.16,1.78-2.59,1.58-3.94,3.23c-2.26,2.76-0.25,5.78-1.79,7.53c-2.47,2.81-11.09-1.02-13.62-2.15
	C269.95,90.65,257.69,83.89,258.93,79.78z"/>
<path class="st0" d="M205.16,147.54c0.01-0.09-5.05-0.93-23.66-4.3c-5.39-0.98-5.62-1.03-6.29-1.14
	c-19.62-3.44-42.12-0.14-42.11,0.07c0.01,0.16,13.04-0.59,25.22-1.95c18.14-2.02,29.59-4.84,32.5-5.58c1.9-0.48,2.95-0.78,7.29-1.89
	c4.94-1.26,11.93-2.99,20.31-4.93c7.59-1.75,13.83-3.09,17.92-3.94c-10.15,0.72-23.65,1.06-39.43-0.36
	c-27.84-2.5-39.87-8.41-67.4-10.75c-10.42-0.89-24.02-1.34-40.15,0c11.95-1.6,26.26-3.22,41.59-4.3
	c14.41-1.02,23.68-1.14,30.47-1.08c3.62,0.04,6.52,0.13,7.78,0.17c15.74,0.53,26.63,2.05,26.63,1.98
	c0.02-0.14-45.23-5.07-45.17-5.74c0.03-0.31,9.78,0.22,19.74,1.33c12.86,1.43,26.97,3.92,26.88,4.69
	c-0.09,0.76-13.8-0.66-27.19-1.34c-47.89-2.44-84.45,4.91-84.44,5c0.01,0.07,17.4-3.74,41.89-2.22c7.05,0.44,19.2,2.48,43.5,6.56
	c24.49,4.11,27.37,4.94,36.39,5.5c19.21,1.2,31.71-0.94,31.89,0.33c0.17,1.21-11.23,2.78-35.28,9.33
	c-10.64,2.9-15.45,4.51-24.33,5.94c-8.83,1.43-16.23,1.81-21.28,1.89C194.19,146.16,205.14,147.68,205.16,147.54z"/>
<g>
	<g>
		<path class="st1" d="M73.47,118.34l17.5,45.07c0.67,1.73,1.43,2.92,2.27,3.56c0.84,0.65,1.6,1,2.27,1.04v1.44
			c-1.44-0.1-3.13-0.16-5.08-0.18c-1.94-0.02-3.9-0.04-5.87-0.04c-2.21,0-4.3,0.01-6.26,0.04c-1.97,0.02-3.53,0.08-4.68,0.18v-1.44
			c2.45-0.1,4-0.52,4.64-1.26c0.65-0.74,0.49-2.34-0.47-4.79l-12.24-33.48l1.3-1.87L55.9,155.13c-1.06,2.64-1.69,4.8-1.91,6.48
			c-0.22,1.68-0.1,2.98,0.36,3.89c0.46,0.91,1.2,1.55,2.23,1.91c1.03,0.36,2.27,0.56,3.71,0.61v1.44c-1.58-0.1-3.1-0.16-4.54-0.18
			c-1.44-0.02-2.9-0.04-4.39-0.04c-1.06,0-2.05,0.01-2.99,0.04c-0.94,0.02-1.76,0.08-2.48,0.18v-1.44c1.01-0.19,2.04-0.84,3.1-1.94
			c1.06-1.1,2.09-2.98,3.1-5.62l16.42-42.12c0.77,0.05,1.6,0.07,2.48,0.07C71.87,118.41,72.7,118.38,73.47,118.34z M78.51,148.72
			v1.44H57.05l0.72-1.44H78.51z"/>
		<path class="st1" d="M143.81,118.48v1.44c-1.06,0.38-2.17,1.22-3.35,2.52c-1.18,1.3-2.27,3.31-3.28,6.05l-15.19,41.11
			c-0.38-0.05-0.79-0.07-1.22-0.07c-0.43,0-0.86,0-1.3,0c-0.38,0-0.79,0-1.22,0c-0.43,0-0.84,0.02-1.22,0.07l-18.36-45.07
			c-0.67-1.73-1.42-2.92-2.23-3.56c-0.82-0.65-1.58-1-2.3-1.04v-1.44c1.44,0.05,3.13,0.1,5.08,0.14c1.94,0.05,3.9,0.07,5.87,0.07
			c2.21,0,4.28-0.02,6.23-0.07c1.94-0.05,3.52-0.1,4.72-0.14v1.44c-1.54,0.05-2.74,0.23-3.6,0.54c-0.86,0.31-1.34,0.89-1.44,1.73
			c-0.1,0.84,0.19,2.1,0.86,3.78l13.1,33.34l-1.51,1.8l9.94-26.78c1.3-3.6,1.97-6.43,2.02-8.5c0.05-2.06-0.46-3.55-1.51-4.46
			c-1.06-0.91-2.57-1.39-4.54-1.44v-1.44c1.63,0.05,3.17,0.1,4.61,0.14c1.44,0.05,2.9,0.07,4.39,0.07c1.06,0,2.05-0.02,2.99-0.07
			C142.26,118.58,143.09,118.53,143.81,118.48z"/>
		<path class="st1" d="M184.06,118.48c-0.19,2.11-0.32,4.15-0.4,6.12c-0.07,1.97-0.11,3.48-0.11,4.54c0,0.96,0.02,1.87,0.07,2.74
			c0.05,0.86,0.1,1.58,0.14,2.16h-1.66c-0.48-3.5-1.22-6.28-2.23-8.32c-1.01-2.04-2.32-3.48-3.92-4.32
			c-1.61-0.84-3.49-1.26-5.65-1.26h-2.95c-1.39,0-2.45,0.12-3.17,0.36c-0.72,0.24-1.2,0.72-1.44,1.44
			c-0.24,0.72-0.36,1.82-0.36,3.31v37.44c0,1.44,0.12,2.53,0.36,3.28c0.24,0.75,0.72,1.24,1.44,1.48c0.72,0.24,1.78,0.36,3.17,0.36
			h3.53c2.16,0,4.07-0.47,5.72-1.4c1.66-0.94,3.07-2.53,4.25-4.79c1.18-2.26,2.08-5.3,2.7-9.14h1.66c-0.14,1.54-0.22,3.55-0.22,6.05
			c0,1.1,0.02,2.66,0.07,4.68c0.05,2.02,0.19,4.1,0.43,6.26c-2.45-0.1-5.21-0.16-8.28-0.18c-3.07-0.02-5.81-0.04-8.21-0.04
			c-1.2,0-2.74,0-4.61,0c-1.87,0-3.89,0.01-6.05,0.04c-2.16,0.02-4.34,0.05-6.55,0.07c-2.21,0.02-4.3,0.06-6.26,0.11v-1.44
			c1.54-0.1,2.69-0.29,3.46-0.58c0.77-0.29,1.28-0.86,1.55-1.73c0.26-0.86,0.4-2.16,0.4-3.89v-35.71c0-1.77-0.13-3.08-0.4-3.92
			c-0.26-0.84-0.79-1.42-1.58-1.73c-0.79-0.31-1.93-0.49-3.42-0.54v-1.44c1.97,0.05,4.06,0.08,6.26,0.11
			c2.21,0.02,4.39,0.05,6.55,0.07c2.16,0.02,4.18,0.04,6.05,0.04c1.87,0,3.41,0,4.61,0c2.21,0,4.72-0.01,7.52-0.04
			C179.34,118.64,181.85,118.58,184.06,118.48z M172.83,143.1v1.44h-12.6v-1.44H172.83z M174.91,133.6
			c-0.19,2.74-0.28,4.82-0.25,6.26c0.02,1.44,0.04,2.76,0.04,3.96c0,1.2,0.02,2.52,0.07,3.96s0.17,3.53,0.36,6.26h-1.66
			c-0.24-1.68-0.68-3.24-1.33-4.68c-0.65-1.44-1.57-2.6-2.77-3.49c-1.2-0.89-2.76-1.33-4.68-1.33v-1.44c1.44,0,2.66-0.3,3.67-0.9
			c1.01-0.6,1.84-1.39,2.48-2.38c0.65-0.98,1.16-2.03,1.55-3.13c0.38-1.1,0.67-2.14,0.86-3.1H174.91z"/>
		<path class="st1" d="M238.63,118.48v1.44c-1.54,0.19-2.69,0.59-3.46,1.19c-0.77,0.6-1.29,1.55-1.55,2.84s-0.4,3.12-0.4,5.47v40.18
			c-0.58-0.05-1.16-0.07-1.76-0.07c-0.6,0-1.24,0.02-1.91,0.07L198.31,130v27.65c0,2.64,0.14,4.67,0.43,6.08
			c0.29,1.42,0.92,2.42,1.91,3.02c0.98,0.6,2.53,1.02,4.64,1.26v1.44c-0.91-0.1-2.11-0.16-3.6-0.18c-1.49-0.02-2.88-0.04-4.18-0.04
			c-1.1,0-2.23,0.01-3.38,0.04c-1.15,0.02-2.11,0.08-2.88,0.18v-1.44c1.54-0.24,2.69-0.65,3.46-1.22s1.28-1.52,1.55-2.84
			c0.26-1.32,0.4-3.13,0.4-5.44v-32.4c0-1.77-0.13-3.08-0.4-3.92c-0.26-0.84-0.79-1.42-1.58-1.73c-0.79-0.31-1.93-0.49-3.42-0.54
			v-1.44c0.77,0.05,1.73,0.1,2.88,0.14c1.15,0.05,2.28,0.07,3.38,0.07c1.15,0,2.26-0.02,3.31-0.07c1.06-0.05,2.02-0.1,2.88-0.14
			l27.86,34.34v-22.54c0-2.64-0.14-4.67-0.43-6.08c-0.29-1.42-0.92-2.44-1.91-3.06c-0.98-0.62-2.53-1.03-4.64-1.22v-1.44
			c0.91,0.05,2.11,0.1,3.6,0.14c1.49,0.05,2.88,0.07,4.18,0.07c1.15,0,2.29-0.02,3.42-0.07
			C236.92,118.58,237.86,118.53,238.63,118.48z"/>
		<path class="st1" d="M267.22,118.34l17.5,45.07c0.67,1.73,1.43,2.92,2.27,3.56s1.6,1,2.27,1.04v1.44
			c-1.44-0.1-3.13-0.16-5.08-0.18c-1.94-0.02-3.9-0.04-5.87-0.04c-2.21,0-4.3,0.01-6.26,0.04c-1.97,0.02-3.53,0.08-4.68,0.18v-1.44
			c2.45-0.1,4-0.52,4.64-1.26c0.65-0.74,0.49-2.34-0.47-4.79l-12.24-33.48l1.3-1.87l-10.94,28.51c-1.06,2.64-1.69,4.8-1.91,6.48
			c-0.22,1.68-0.1,2.98,0.36,3.89c0.46,0.91,1.2,1.55,2.23,1.91c1.03,0.36,2.27,0.56,3.71,0.61v1.44c-1.58-0.1-3.1-0.16-4.54-0.18
			c-1.44-0.02-2.91-0.04-4.39-0.04c-1.06,0-2.05,0.01-2.99,0.04c-0.94,0.02-1.76,0.08-2.48,0.18v-1.44c1.01-0.19,2.04-0.84,3.1-1.94
			c1.06-1.1,2.09-2.98,3.1-5.62l16.42-42.12c0.77,0.05,1.59,0.07,2.48,0.07C265.62,118.41,266.45,118.38,267.22,118.34z
			 M272.26,148.72v1.44H250.8l0.72-1.44H272.26z"/>
	</g>
</g>
</svg>
